<svg width="64" height="64" viewBox="0 0 64 64" fill="none" xmlns="http://www.w3.org/2000/svg">
<rect width="64" height="64" rx="6.4" fill="#0F0C09"/>
<path d="M30.2347 33.5004C32.0653 35.3309 35.0332 35.3309 36.8638 33.5004L41.8357 28.5285C43.6663 26.6979 43.6663 23.73 41.8357 21.8994C40.0051 20.0688 37.0371 20.0688 35.2065 21.8994L31.892 18.5848C35.5531 14.9237 41.4891 14.9237 45.1502 18.5848C48.8114 22.246 48.8114 28.1819 45.1502 31.8431L40.1784 36.8149C36.5172 40.4761 30.5813 40.4761 26.9201 36.8149L30.2347 33.5004Z" fill="#FFC700"/>
<path d="M33.5495 30.1857C31.7189 28.3551 28.7509 28.3551 26.9204 30.1857L21.9485 35.1575C20.1179 36.9881 20.1179 39.9561 21.9485 41.7867C23.7791 43.6172 26.7471 43.6172 28.5776 41.7866L31.8922 45.1012C28.231 48.7624 22.2951 48.7624 18.6339 45.1012C14.9728 41.44 14.9728 35.5041 18.6339 31.843L23.6058 26.8711C27.267 23.21 33.2029 23.21 36.864 26.8711L33.5495 30.1857Z" fill="#FFC700"/>
</svg>
