<svg width="315" height="64" viewBox="0 0 315 64" fill="none" xmlns="http://www.w3.org/2000/svg">
<circle cx="33" cy="32" r="32" fill="white"/>
<path d="M32.4732 42.5917C39.2088 42.5917 44.6691 37.1315 44.6691 30.3958C44.6691 23.6602 39.2088 18.2 32.4732 18.2C25.7376 18.2 20.2773 23.6602 20.2773 30.3958C20.2773 37.1315 25.7376 42.5917 32.4732 42.5917Z" fill="white"/>
<path d="M50.1938 31.1992C50.1938 21.4119 42.2596 13.4778 32.4723 13.4778C22.685 13.4778 14.7509 21.4119 14.7509 31.1992C14.7509 34.4692 15.6378 37.5324 17.1821 40.162C20.2594 45.4042 25.955 48.9207 32.4723 48.9207C36.5981 48.9207 40.3923 47.5067 43.4044 45.1435L44.263 45.3305C46.5866 45.832 48.6721 48.7393 50.1938 50.5642V31.3182C50.1938 31.2786 50.1938 31.2389 50.1938 31.2021V31.1992ZM38.3606 37.538C38.4767 38.1699 38.3889 38.6828 38.1452 38.9832C37.9724 39.1957 37.7287 39.3006 37.4255 39.3006C37.1223 39.3006 36.8077 39.1957 36.4479 39.0002L33.9061 37.606L32.5516 36.8636C32.5233 36.8495 32.495 36.8495 32.4808 36.8636L28.5846 39.0172C28.2247 39.2127 27.879 39.3176 27.5928 39.3176C27.2896 39.3176 27.0459 39.2127 26.8731 39.0002C26.6294 38.6828 26.5415 38.1728 26.6436 37.555L27.3775 33.0099C27.3916 32.9958 27.3775 32.9646 27.3633 32.9504L24.2151 29.7739C24.201 29.7598 24.201 29.7428 24.1868 29.7428H24.1726C23.6683 29.2157 23.4529 28.6886 23.5974 28.2523C23.7419 27.8159 24.201 27.4985 24.9207 27.3937L29.276 26.7165C29.3043 26.7023 29.3185 26.6853 29.3327 26.6711L31.2737 22.5312C31.6052 21.854 32.0218 21.4771 32.4666 21.4771C32.9115 21.4771 33.3451 21.854 33.6596 22.5312L35.6148 26.6569C35.629 26.6853 35.6431 26.7023 35.6715 26.7023L40.0267 27.3512C40.7323 27.456 41.2055 27.7564 41.35 28.2098C41.4946 28.6461 41.2792 29.1874 40.7606 29.7144L37.6125 32.9362C37.5983 32.9504 37.5983 32.9646 37.5983 32.9957L38.1112 36.0532L38.3606 37.5437V37.538Z" fill="#F11978"/>
<path d="M309.459 26.1878H314.051V43.9873H309.459V41.887C308.082 43.6195 306.148 44.4857 303.656 44.4857C301.283 44.4857 299.242 43.5839 297.533 41.7802C295.848 39.9528 295.006 37.7219 295.006 35.0876C295.006 32.4533 295.848 30.2343 297.533 28.4306C299.242 26.6032 301.283 25.6895 303.656 25.6895C306.148 25.6895 308.082 26.5557 309.459 28.2882V26.1878ZM300.986 38.7187C301.912 39.6442 303.087 40.107 304.511 40.107C305.935 40.107 307.109 39.6442 308.035 38.7187C308.984 37.7694 309.459 36.559 309.459 35.0876C309.459 33.6162 308.984 32.4177 308.035 31.4921C307.109 30.5428 305.935 30.0681 304.511 30.0681C303.087 30.0681 301.912 30.5428 300.986 31.4921C300.061 32.4177 299.598 33.6162 299.598 35.0876C299.598 36.559 300.061 37.7694 300.986 38.7187Z" fill="white"/>
<path d="M289.464 24.0518C288.681 24.0518 288.004 23.7789 287.435 23.2331C286.889 22.6635 286.616 21.999 286.616 21.2395C286.616 20.4801 286.889 19.8156 287.435 19.246C288.004 18.6764 288.681 18.3916 289.464 18.3916C290.223 18.3916 290.876 18.6764 291.422 19.246C291.991 19.8156 292.276 20.4801 292.276 21.2395C292.276 21.999 291.991 22.6635 291.422 23.2331C290.876 23.7789 290.223 24.0518 289.464 24.0518ZM287.15 44.3432V26.1878H291.742V44.3432C291.742 46.9538 291.101 48.8525 289.82 50.0391C288.562 51.2494 286.616 51.7716 283.982 51.6054V47.1912C285.073 47.2624 285.868 47.0725 286.367 46.6216C286.889 46.1707 287.15 45.4112 287.15 44.3432Z" fill="white"/>
<path d="M276.278 25.6895C278.224 25.6895 279.826 26.3421 281.084 27.6474C282.365 28.9527 283.006 30.7564 283.006 33.0584V43.9873H278.414V33.628C278.414 32.4414 278.093 31.5395 277.452 30.9225C276.812 30.2817 275.957 29.9613 274.889 29.9613C273.703 29.9613 272.753 30.3292 272.041 31.0649C271.329 31.8006 270.973 32.9042 270.973 34.3756V43.9873H266.381V26.1878H270.973V28.1814C272.089 26.5201 273.857 25.6895 276.278 25.6895Z" fill="white"/>
<path d="M259.864 24.0518C259.105 24.0518 258.44 23.7789 257.871 23.2331C257.325 22.6635 257.052 21.999 257.052 21.2395C257.052 20.4801 257.325 19.8156 257.871 19.246C258.44 18.6764 259.105 18.3916 259.864 18.3916C260.647 18.3916 261.312 18.6764 261.858 19.246C262.427 19.8156 262.712 20.4801 262.712 21.2395C262.712 21.999 262.427 22.6635 261.858 23.2331C261.312 23.7789 260.647 24.0518 259.864 24.0518ZM257.586 43.9873V26.1878H262.178V43.9873H257.586Z" fill="white"/>
<path d="M248.264 19.0681H253.177V43.9874H249.439L238.759 28.751V43.9874H233.847V19.0681H237.584L248.264 34.2689V19.0681Z" fill="white"/>
<path d="M224.838 43.9872V18H229.43V43.9872H224.838Z" fill="white"/>
<path d="M216.081 26.1878H220.673V43.9873H216.081V41.887C214.705 43.6195 212.77 44.4857 210.278 44.4857C207.905 44.4857 205.864 43.5839 204.155 41.7802C202.47 39.9528 201.628 37.7219 201.628 35.0876C201.628 32.4533 202.47 30.2343 204.155 28.4306C205.864 26.6032 207.905 25.6895 210.278 25.6895C212.77 25.6895 214.705 26.5557 216.081 28.2882V26.1878ZM207.608 38.7187C208.534 39.6442 209.709 40.107 211.133 40.107C212.557 40.107 213.731 39.6442 214.657 38.7187C215.606 37.7694 216.081 36.559 216.081 35.0876C216.081 33.6162 215.606 32.4177 214.657 31.4921C213.731 30.5428 212.557 30.0681 211.133 30.0681C209.709 30.0681 208.534 30.5428 207.608 31.4921C206.683 32.4177 206.22 33.6162 206.22 35.0876C206.22 36.559 206.683 37.7694 207.608 38.7187Z" fill="white"/>
<path d="M196.036 24.0518C195.277 24.0518 194.612 23.7789 194.043 23.2331C193.497 22.6635 193.224 21.999 193.224 21.2395C193.224 20.4801 193.497 19.8156 194.043 19.246C194.612 18.6764 195.277 18.3916 196.036 18.3916C196.819 18.3916 197.484 18.6764 198.03 19.246C198.599 19.8156 198.884 20.4801 198.884 21.2395C198.884 21.999 198.599 22.6635 198.03 23.2331C197.484 23.7789 196.819 24.0518 196.036 24.0518ZM193.758 43.9873V26.1878H198.35V43.9873H193.758Z" fill="white"/>
<path d="M183.284 44.4857C180.602 44.4857 178.359 43.5839 176.556 41.7802C174.776 39.9765 173.886 37.7456 173.886 35.0876C173.886 32.4295 174.776 30.1987 176.556 28.395C178.359 26.5913 180.602 25.6895 183.284 25.6895C185.016 25.6895 186.594 26.1048 188.018 26.9354C189.442 27.7661 190.522 28.8815 191.258 30.2817L187.306 32.5957C186.95 31.8599 186.405 31.2785 185.669 30.8513C184.957 30.4241 184.15 30.2105 183.248 30.2105C181.872 30.2105 180.732 30.6733 179.831 31.5989C178.929 32.5007 178.478 33.6636 178.478 35.0876C178.478 36.4878 178.929 37.6507 179.831 38.5763C180.732 39.4781 181.872 39.929 183.248 39.929C184.174 39.929 184.992 39.7273 185.704 39.3239C186.44 38.8967 186.986 38.3152 187.342 37.5795L191.329 39.8578C190.546 41.2581 189.442 42.3854 188.018 43.2397C186.594 44.0704 185.016 44.4857 183.284 44.4857Z" fill="white"/>
<path d="M168.84 41.7802C167.012 43.5839 164.781 44.4857 162.147 44.4857C159.513 44.4857 157.282 43.5839 155.454 41.7802C153.651 39.9528 152.749 37.7219 152.749 35.0876C152.749 32.4533 153.651 30.2343 155.454 28.4306C157.282 26.6032 159.513 25.6895 162.147 25.6895C164.781 25.6895 167.012 26.6032 168.84 28.4306C170.667 30.2343 171.581 32.4533 171.581 35.0876C171.581 37.7219 170.667 39.9528 168.84 41.7802ZM158.694 38.6119C159.619 39.5374 160.77 40.0002 162.147 40.0002C163.523 40.0002 164.674 39.5374 165.6 38.6119C166.526 37.6863 166.988 36.5115 166.988 35.0876C166.988 33.6636 166.526 32.4889 165.6 31.5633C164.674 30.6377 163.523 30.1749 162.147 30.1749C160.77 30.1749 159.619 30.6377 158.694 31.5633C157.792 32.4889 157.341 33.6636 157.341 35.0876C157.341 36.5115 157.792 37.6863 158.694 38.6119Z" fill="white"/>
<path d="M141.155 44.4856C138.687 44.4856 136.61 43.9398 134.925 42.8481C133.24 41.7326 132.053 40.2256 131.365 38.327L135.566 35.8707C136.539 38.4101 138.449 39.6798 141.297 39.6798C142.674 39.6798 143.682 39.4306 144.323 38.9322C144.964 38.4338 145.284 37.8049 145.284 37.0454C145.284 36.1673 144.893 35.491 144.11 35.0163C143.326 34.5179 141.926 33.9839 139.909 33.4143C138.794 33.0821 137.844 32.7498 137.061 32.4176C136.302 32.0853 135.53 31.6463 134.747 31.1004C133.988 30.5308 133.406 29.8189 133.003 28.9645C132.599 28.1101 132.398 27.1133 132.398 25.9742C132.398 23.7196 133.193 21.9278 134.783 20.5987C136.397 19.246 138.331 18.5696 140.585 18.5696C142.603 18.5696 144.371 19.068 145.89 20.0647C147.432 21.0378 148.631 22.4024 149.485 24.1586L145.356 26.5437C144.359 24.4078 142.769 23.3398 140.585 23.3398C139.565 23.3398 138.758 23.5772 138.165 24.0518C137.595 24.5027 137.31 25.0961 137.31 25.8318C137.31 26.6149 137.631 27.2557 138.271 27.7541C138.936 28.2288 140.194 28.7509 142.045 29.3205C142.804 29.5578 143.374 29.7477 143.754 29.8901C144.157 30.0087 144.691 30.2104 145.356 30.4952C146.044 30.7563 146.566 31.0055 146.922 31.2428C147.302 31.4801 147.729 31.8005 148.204 32.204C148.678 32.6074 149.034 33.0228 149.272 33.4499C149.533 33.8771 149.746 34.3993 149.912 35.0163C150.102 35.6096 150.197 36.2623 150.197 36.9742C150.197 39.2763 149.355 41.1037 147.67 42.4565C146.008 43.8092 143.837 44.4856 141.155 44.4856Z" fill="white"/>
<path d="M121.636 19.0681C124.033 19.0681 126.05 19.875 127.687 21.4888C129.325 23.1027 130.144 25.0843 130.144 27.4339C130.144 29.7834 129.325 31.7651 127.687 33.3789C126.05 34.9927 124.033 35.7996 121.636 35.7996H117.257V43.9874H112.344V19.0681H121.636ZM121.636 31.2074C122.68 31.2074 123.546 30.8514 124.234 30.1394C124.923 29.4037 125.267 28.5018 125.267 27.4339C125.267 26.3422 124.923 25.4403 124.234 24.7284C123.546 24.0164 122.68 23.6604 121.636 23.6604H117.257V31.2074H121.636Z" fill="white"/>
<path d="M81.9774 43.9874L75 19.0681H80.1618L84.9321 37.544L90.1296 19.0681H94.3302L99.5633 37.544L104.334 19.0681H109.495L102.518 43.9874H96.929L92.2299 27.5407L87.5664 43.9874H81.9774Z" fill="white"/>
</svg>
