<svg width="314" height="64" viewBox="0 0 314 64" fill="none" xmlns="http://www.w3.org/2000/svg">
<circle cx="32" cy="32" r="32" fill="black"/>
<path d="M31.4732 42.592C38.2088 42.592 43.6691 37.1317 43.6691 30.3961C43.6691 23.6605 38.2088 18.2002 31.4732 18.2002C24.7376 18.2002 19.2773 23.6605 19.2773 30.3961C19.2773 37.1317 24.7376 42.592 31.4732 42.592Z" fill="black"/>
<path d="M49.1938 31.1995C49.1938 21.4122 41.2596 13.478 31.4723 13.478C21.685 13.478 13.7509 21.4122 13.7509 31.1995C13.7509 34.4695 14.6378 37.5326 16.1821 40.1622C19.2594 45.4044 24.955 48.9209 31.4723 48.9209C35.5981 48.9209 39.3923 47.507 42.4044 45.1437L43.263 45.3307C45.5866 45.8323 47.6721 48.7396 49.1938 50.5644V31.3185C49.1938 31.2788 49.1938 31.2392 49.1938 31.2023V31.1995ZM37.3606 37.5383C37.4767 38.1702 37.3889 38.6831 37.1452 38.9834C36.9724 39.1959 36.7287 39.3008 36.4255 39.3008C36.1223 39.3008 35.8077 39.196 35.4479 39.0004L32.9061 37.6063L31.5516 36.8639C31.5233 36.8497 31.495 36.8497 31.4808 36.8639L27.5846 39.0174C27.2247 39.213 26.879 39.3178 26.5928 39.3178C26.2896 39.3178 26.0459 39.213 25.8731 39.0004C25.6294 38.6831 25.5415 38.173 25.6436 37.5553L26.3775 33.0102C26.3916 32.996 26.3775 32.9648 26.3633 32.9507L23.2151 29.7742C23.201 29.76 23.201 29.743 23.1868 29.743H23.1726C22.6683 29.2159 22.4529 28.6889 22.5974 28.2525C22.7419 27.8161 23.201 27.4988 23.9207 27.3939L28.276 26.7167C28.3043 26.7025 28.3185 26.6855 28.3327 26.6714L30.2737 22.5314C30.6052 21.8542 31.0218 21.4773 31.4666 21.4773C31.9115 21.4773 32.3451 21.8542 32.6596 22.5314L34.6148 26.6572C34.629 26.6855 34.6431 26.7025 34.6715 26.7025L39.0267 27.3514C39.7323 27.4563 40.2055 27.7566 40.35 28.21C40.4946 28.6464 40.2792 29.1876 39.7606 29.7147L36.6125 32.9365C36.5983 32.9507 36.5983 32.9648 36.5983 32.996L37.1112 36.0535L37.3606 37.5439V37.5383Z" fill="white"/>
<path d="M308.459 26.1878H313.051V43.9873H308.459V41.887C307.082 43.6195 305.148 44.4857 302.656 44.4857C300.283 44.4857 298.242 43.5839 296.533 41.7802C294.848 39.9528 294.006 37.7219 294.006 35.0876C294.006 32.4533 294.848 30.2343 296.533 28.4306C298.242 26.6032 300.283 25.6895 302.656 25.6895C305.148 25.6895 307.082 26.5557 308.459 28.2882V26.1878ZM299.986 38.7187C300.912 39.6442 302.087 40.107 303.511 40.107C304.935 40.107 306.109 39.6442 307.035 38.7187C307.984 37.7694 308.459 36.559 308.459 35.0876C308.459 33.6162 307.984 32.4177 307.035 31.4921C306.109 30.5428 304.935 30.0681 303.511 30.0681C302.087 30.0681 300.912 30.5428 299.986 31.4921C299.061 32.4177 298.598 33.6162 298.598 35.0876C298.598 36.559 299.061 37.7694 299.986 38.7187Z" fill="black"/>
<path d="M288.464 24.0518C287.681 24.0518 287.004 23.7789 286.435 23.2331C285.889 22.6635 285.616 21.999 285.616 21.2395C285.616 20.4801 285.889 19.8156 286.435 19.246C287.004 18.6764 287.681 18.3916 288.464 18.3916C289.223 18.3916 289.876 18.6764 290.422 19.246C290.991 19.8156 291.276 20.4801 291.276 21.2395C291.276 21.999 290.991 22.6635 290.422 23.2331C289.876 23.7789 289.223 24.0518 288.464 24.0518ZM286.15 44.3432V26.1878H290.742V44.3432C290.742 46.9538 290.101 48.8525 288.82 50.0391C287.562 51.2494 285.616 51.7716 282.982 51.6054V47.1912C284.073 47.2624 284.868 47.0725 285.367 46.6216C285.889 46.1707 286.15 45.4112 286.15 44.3432Z" fill="black"/>
<path d="M275.278 25.6895C277.224 25.6895 278.826 26.3421 280.084 27.6474C281.365 28.9527 282.006 30.7564 282.006 33.0584V43.9873H277.414V33.628C277.414 32.4414 277.093 31.5395 276.452 30.9225C275.812 30.2817 274.957 29.9613 273.889 29.9613C272.703 29.9613 271.753 30.3292 271.041 31.0649C270.329 31.8006 269.973 32.9042 269.973 34.3756V43.9873H265.381V26.1878H269.973V28.1814C271.089 26.5201 272.857 25.6895 275.278 25.6895Z" fill="black"/>
<path d="M258.864 24.0518C258.105 24.0518 257.44 23.7789 256.871 23.2331C256.325 22.6635 256.052 21.999 256.052 21.2395C256.052 20.4801 256.325 19.8156 256.871 19.246C257.44 18.6764 258.105 18.3916 258.864 18.3916C259.647 18.3916 260.312 18.6764 260.858 19.246C261.427 19.8156 261.712 20.4801 261.712 21.2395C261.712 21.999 261.427 22.6635 260.858 23.2331C260.312 23.7789 259.647 24.0518 258.864 24.0518ZM256.586 43.9873V26.1878H261.178V43.9873H256.586Z" fill="black"/>
<path d="M247.264 19.0679H252.177V43.9871H248.439L237.759 28.7508V43.9871H232.847V19.0679H236.584L247.264 34.2686V19.0679Z" fill="black"/>
<path d="M223.838 43.9872V18H228.43V43.9872H223.838Z" fill="black"/>
<path d="M215.081 26.1878H219.673V43.9873H215.081V41.887C213.705 43.6195 211.77 44.4857 209.278 44.4857C206.905 44.4857 204.864 43.5839 203.155 41.7802C201.47 39.9528 200.628 37.7219 200.628 35.0876C200.628 32.4533 201.47 30.2343 203.155 28.4306C204.864 26.6032 206.905 25.6895 209.278 25.6895C211.77 25.6895 213.705 26.5557 215.081 28.2882V26.1878ZM206.608 38.7187C207.534 39.6442 208.709 40.107 210.133 40.107C211.557 40.107 212.731 39.6442 213.657 38.7187C214.606 37.7694 215.081 36.559 215.081 35.0876C215.081 33.6162 214.606 32.4177 213.657 31.4921C212.731 30.5428 211.557 30.0681 210.133 30.0681C208.709 30.0681 207.534 30.5428 206.608 31.4921C205.683 32.4177 205.22 33.6162 205.22 35.0876C205.22 36.559 205.683 37.7694 206.608 38.7187Z" fill="black"/>
<path d="M195.036 24.0518C194.277 24.0518 193.612 23.7789 193.043 23.2331C192.497 22.6635 192.224 21.999 192.224 21.2395C192.224 20.4801 192.497 19.8156 193.043 19.246C193.612 18.6764 194.277 18.3916 195.036 18.3916C195.819 18.3916 196.484 18.6764 197.03 19.246C197.599 19.8156 197.884 20.4801 197.884 21.2395C197.884 21.999 197.599 22.6635 197.03 23.2331C196.484 23.7789 195.819 24.0518 195.036 24.0518ZM192.758 43.9873V26.1878H197.35V43.9873H192.758Z" fill="black"/>
<path d="M182.284 44.4857C179.602 44.4857 177.359 43.5839 175.556 41.7802C173.776 39.9765 172.886 37.7456 172.886 35.0876C172.886 32.4295 173.776 30.1987 175.556 28.395C177.359 26.5913 179.602 25.6895 182.284 25.6895C184.016 25.6895 185.594 26.1048 187.018 26.9354C188.442 27.7661 189.522 28.8815 190.258 30.2817L186.306 32.5957C185.95 31.8599 185.405 31.2785 184.669 30.8513C183.957 30.4241 183.15 30.2105 182.248 30.2105C180.872 30.2105 179.732 30.6733 178.831 31.5989C177.929 32.5007 177.478 33.6636 177.478 35.0876C177.478 36.4878 177.929 37.6507 178.831 38.5763C179.732 39.4781 180.872 39.929 182.248 39.929C183.174 39.929 183.992 39.7273 184.704 39.3239C185.44 38.8967 185.986 38.3152 186.342 37.5795L190.329 39.8578C189.546 41.2581 188.442 42.3854 187.018 43.2397C185.594 44.0704 184.016 44.4857 182.284 44.4857Z" fill="black"/>
<path d="M167.84 41.7802C166.012 43.5839 163.781 44.4857 161.147 44.4857C158.513 44.4857 156.282 43.5839 154.454 41.7802C152.651 39.9528 151.749 37.7219 151.749 35.0876C151.749 32.4533 152.651 30.2343 154.454 28.4306C156.282 26.6032 158.513 25.6895 161.147 25.6895C163.781 25.6895 166.012 26.6032 167.84 28.4306C169.667 30.2343 170.581 32.4533 170.581 35.0876C170.581 37.7219 169.667 39.9528 167.84 41.7802ZM157.694 38.6119C158.619 39.5374 159.77 40.0002 161.147 40.0002C162.523 40.0002 163.674 39.5374 164.6 38.6119C165.526 37.6863 165.988 36.5115 165.988 35.0876C165.988 33.6636 165.526 32.4889 164.6 31.5633C163.674 30.6377 162.523 30.1749 161.147 30.1749C159.77 30.1749 158.619 30.6377 157.694 31.5633C156.792 32.4889 156.341 33.6636 156.341 35.0876C156.341 36.5115 156.792 37.6863 157.694 38.6119Z" fill="black"/>
<path d="M140.155 44.4859C137.687 44.4859 135.61 43.94 133.925 42.8483C132.24 41.7329 131.053 40.2259 130.365 38.3272L134.566 35.8709C135.539 38.4103 137.449 39.68 140.297 39.68C141.674 39.68 142.682 39.4308 143.323 38.9324C143.964 38.434 144.284 37.8051 144.284 37.0457C144.284 36.1676 143.893 35.4912 143.11 35.0165C142.326 34.5182 140.926 33.9842 138.909 33.4146C137.794 33.0823 136.844 32.7501 136.061 32.4178C135.302 32.0856 134.53 31.6465 133.747 31.1007C132.988 30.5311 132.406 29.8191 132.003 28.9647C131.599 28.1103 131.398 27.1136 131.398 25.9744C131.398 23.7198 132.193 21.928 133.783 20.599C135.397 19.2462 137.331 18.5698 139.585 18.5698C141.603 18.5698 143.371 19.0682 144.89 20.065C146.432 21.038 147.631 22.4026 148.485 24.1589L144.356 26.544C143.359 24.4081 141.769 23.3401 139.585 23.3401C138.565 23.3401 137.758 23.5774 137.165 24.0521C136.595 24.503 136.31 25.0963 136.31 25.832C136.31 26.6152 136.631 27.256 137.271 27.7544C137.936 28.229 139.194 28.7511 141.045 29.3207C141.804 29.558 142.374 29.7479 142.754 29.8903C143.157 30.009 143.691 30.2107 144.356 30.4955C145.044 30.7565 145.566 31.0057 145.922 31.2431C146.302 31.4804 146.729 31.8008 147.204 32.2042C147.678 32.6077 148.034 33.023 148.272 33.4502C148.533 33.8774 148.746 34.3995 148.912 35.0165C149.102 35.6099 149.197 36.2625 149.197 36.9745C149.197 39.2766 148.355 41.104 146.67 42.4567C145.008 43.8095 142.837 44.4859 140.155 44.4859Z" fill="black"/>
<path d="M120.636 19.0679C123.033 19.0679 125.05 19.8748 126.687 21.4886C128.325 23.1024 129.144 25.0841 129.144 27.4336C129.144 29.7832 128.325 31.7648 126.687 33.3787C125.05 34.9925 123.033 35.7994 120.636 35.7994H116.257V43.9871H111.344V19.0679H120.636ZM120.636 31.2071C121.68 31.2071 122.546 30.8511 123.234 30.1391C123.923 29.4034 124.267 28.5016 124.267 27.4336C124.267 26.3419 123.923 25.4401 123.234 24.7281C122.546 24.0161 121.68 23.6601 120.636 23.6601H116.257V31.2071H120.636Z" fill="black"/>
<path d="M80.9774 43.9871L74 19.0679H79.1618L83.9321 37.5437L89.1296 19.0679H93.3302L98.5633 37.5437L103.334 19.0679H108.495L101.518 43.9871H95.929L91.2299 27.5404L86.5664 43.9871H80.9774Z" fill="black"/>
</svg>
