<svg width="272" height="64" viewBox="0 0 272 64" fill="none" xmlns="http://www.w3.org/2000/svg">
<path d="M59.6337 34.0779C59.0763 34.2211 58.8967 34.49 58.8792 35.0454C58.7764 38.289 58.0709 41.4853 56.7985 44.4716C56.4218 45.3855 56.2959 46.2273 56.5795 47.1413C57.0285 48.5746 56.7766 49.8647 55.9334 51.0836C54.7693 52.7498 53.7684 54.5416 52.4543 56.0842C48.4343 60.8148 43.3542 63.6453 37.0728 63.9558C31.2743 64.2422 25.6752 63.1314 20.3618 60.8017C12.8583 57.4989 6.71932 52.553 3.05846 45.1516C-2.23736 34.4725 -0.387764 24.4549 6.53972 15.1195C7.18582 14.2449 7.97647 13.4534 8.74741 12.5569C5.82244 11.5719 0.109403 10.9804 0.060124 9.62039C0.0108453 8.26037 1.55053 4.00975 3.39465 4.09939C5.23877 4.18904 8.36632 8.43529 11.0055 10.729C11.0055 7.1988 9.96404 1.64392 11.0055 0.569234C12.0469 -0.505448 15.941 0.0313463 16.4612 1.42854C16.9999 2.82683 14.7025 6.12959 13.787 8.56102C13.9522 8.50438 14.1141 8.43868 14.2721 8.36423C24.8615 2.34251 35.5955 2.89789 46.2025 8.11278C53.2384 11.5719 57.9056 17.4668 61.1898 24.4735C62.0051 26.2073 62.7042 27.9799 63.2554 29.8375C63.7467 31.493 62.7139 33.1859 61.0579 33.6754C60.5805 33.8165 60.107 33.9522 59.6337 34.0779ZM14.4736 33.5629C15.4794 36.6573 17.0027 39.5594 18.9788 42.1462C25.1868 50.1697 33.4273 53.2516 43.3892 51.9429C45.633 51.6565 47.6436 50.6529 49.3848 49.2021C53.89 45.403 55.7363 40.2603 56.8511 34.5797C42.5986 37.1237 28.5629 36.8198 14.4736 33.5629Z" fill="#445566"/>
<path d="M46.2137 8.09477C43.5538 6.76938 40.7602 5.73004 37.8801 4.99426C22.8217 9.70734 11.8906 23.7383 11.8906 40.3134C11.8777 46.9615 13.6704 53.4888 17.078 59.2006C18.1369 59.7735 19.2309 60.3114 20.3632 60.7946C25.6766 63.1244 31.2582 64.2351 37.0742 63.9487C43.3556 63.6437 48.4356 60.8132 52.4557 56.0772C53.7698 54.5357 54.7718 52.7438 55.938 51.0777C56.7813 49.8587 57.0331 48.5686 56.5841 47.1353C56.2972 46.2214 56.4232 45.3796 56.8032 44.4656C58.0737 41.4787 58.7792 38.2828 58.8838 35.0394C58.9013 34.4841 59.0809 34.2337 59.6383 34.0719C60.4388 33.8594 61.2396 33.6184 62.0568 33.368C63.1467 33.0341 63.8188 31.9242 63.5286 30.8218C62.942 28.5933 62.1428 26.4944 61.1813 24.449C57.8939 17.4302 53.2441 11.5528 46.2137 8.09477Z" fill="#4B5D73"/>
<path d="M49.4011 49.1826C47.6599 50.6345 45.6636 51.6381 43.4055 51.9289C33.4403 53.2409 25.1877 50.1546 18.995 42.1267C17.0239 39.5827 15.5488 36.7511 14.4899 33.5435C28.5617 36.8233 42.5984 37.1272 56.886 34.5657C55.7547 40.2408 53.9062 45.4021 49.4011 49.1826Z" fill="white"/>
<path d="M52.3351 37.6932L43.5679 39.6906L43.8942 41.1895L52.3351 37.6932Z" fill="#445566"/>
<path d="M27.4691 37.7833L37.9512 40.0234L37.5745 41.8153L27.4691 37.7833Z" fill="#445566"/>
<path d="M32.2603 39.2355C33.2119 39.9701 35.6167 40.7048 37.0349 41.0995C37.0556 41.2419 37.0677 41.3853 37.071 41.5291C37.071 42.3133 36.759 43.0654 36.2036 43.6199C35.6481 44.1744 34.8948 44.4859 34.1094 44.4859C33.3239 44.4859 32.5706 44.1744 32.0152 43.6199C31.4597 43.0654 31.1477 42.3133 31.1477 41.5291C31.1542 41.0889 31.2571 40.6554 31.4493 40.2592C31.6416 39.8629 31.9184 39.5135 32.2603 39.2355Z" fill="#445566"/>
<path d="M49.0298 38.5828C48.1165 39.2999 45.7664 40.016 44.3965 40.4074C44.3783 40.544 44.3709 40.6818 44.3746 40.8196C44.3671 41.2008 44.4359 41.5797 44.5768 41.9341C44.7178 42.2884 44.9282 42.6112 45.1956 42.8834C45.463 43.1556 45.7821 43.3719 46.1343 43.5195C46.4864 43.6672 46.8645 43.7432 47.2464 43.7432C47.6283 43.7432 48.0064 43.6672 48.3586 43.5195C48.7107 43.3719 49.0298 43.1556 49.2972 42.8834C49.5647 42.6112 49.775 42.2884 49.916 41.9341C50.0569 41.5797 50.1257 41.2008 50.1183 40.8196C50.112 40.3899 50.0112 39.9669 49.8231 39.5804C49.635 39.1938 49.3642 38.8533 49.0298 38.5828Z" fill="#445566"/>
<path d="M34.6647 43.2677C35.2399 43.2677 35.7061 42.8023 35.7061 42.2281C35.7061 41.6538 35.2399 41.1884 34.6647 41.1884C34.0896 41.1884 33.6233 41.6538 33.6233 42.2281C33.6233 42.8023 34.0896 43.2677 34.6647 43.2677Z" fill="white"/>
<path d="M47.1229 40.5105C47.265 40.5103 47.404 40.5522 47.5223 40.6308C47.6406 40.7095 47.7328 40.8214 47.7874 40.9525C47.8419 41.0835 47.8563 41.2277 47.8287 41.3669C47.8011 41.5061 47.7328 41.634 47.6324 41.7344C47.5319 41.8348 47.4039 41.9032 47.2646 41.931C47.1252 41.9588 46.9807 41.9446 46.8494 41.8904C46.718 41.8361 46.6058 41.7442 46.5268 41.6262C46.4478 41.5083 46.4056 41.3696 46.4056 41.2277C46.4056 41.0377 46.4812 40.8554 46.6157 40.7209C46.7501 40.5865 46.9326 40.5108 47.1229 40.5105Z" fill="white"/>
<path d="M264.913 41.6067C264.111 41.6067 263.396 41.4676 262.769 41.1895C262.142 40.9058 261.645 40.4886 261.28 39.9376C260.92 39.3813 260.74 38.6885 260.74 37.8595C260.74 37.1613 260.868 36.5749 261.124 36.1004C261.381 35.6258 261.73 35.244 262.172 34.9549C262.614 34.6658 263.115 34.4476 263.677 34.3004C264.244 34.1531 264.839 34.0495 265.461 33.9895C266.192 33.9131 266.781 33.8422 267.228 33.7767C267.675 33.7058 268 33.6022 268.202 33.4658C268.404 33.3295 268.504 33.1276 268.504 32.8604V32.8113C268.504 32.2931 268.341 31.8922 268.014 31.6085C267.692 31.3249 267.234 31.1831 266.639 31.1831C266.012 31.1831 265.513 31.3222 265.142 31.6004C264.771 31.8731 264.525 32.2167 264.405 32.6313L261.182 32.3695C261.345 31.6058 261.667 30.9458 262.147 30.3895C262.627 29.8276 263.246 29.3967 264.004 29.0967C264.768 28.7913 265.652 28.6385 266.655 28.6385C267.354 28.6385 268.022 28.7204 268.66 28.884C269.304 29.0476 269.874 29.3013 270.37 29.6449C270.872 29.9885 271.267 30.4304 271.556 30.9704C271.845 31.5049 271.99 32.1458 271.99 32.8931V41.3695H268.684V39.6267H268.586C268.384 40.0195 268.114 40.3658 267.776 40.6658C267.438 40.9604 267.032 41.1922 266.557 41.3613C266.083 41.5249 265.534 41.6067 264.913 41.6067ZM265.911 39.2013C266.424 39.2013 266.876 39.1004 267.269 38.8986C267.662 38.6913 267.97 38.4131 268.193 38.064C268.417 37.7149 268.529 37.3195 268.529 36.8776V35.544C268.42 35.6149 268.27 35.6804 268.079 35.7404C267.894 35.7949 267.684 35.8467 267.449 35.8958C267.214 35.9395 266.98 35.9804 266.745 36.0186C266.511 36.0513 266.298 36.0813 266.107 36.1085C265.698 36.1685 265.341 36.264 265.035 36.3949C264.73 36.5258 264.493 36.7031 264.324 36.9267C264.154 37.1449 264.07 37.4176 264.07 37.7449C264.07 38.2195 264.242 38.5822 264.585 38.8331C264.934 39.0786 265.376 39.2013 265.911 39.2013Z" fill="#4B5D73"/>
<path d="M255.052 28.8022H258.537V41.9913C258.537 42.9622 258.346 43.7477 257.964 44.3477C257.582 44.9477 257.034 45.3868 256.32 45.665C255.611 45.9432 254.762 46.0822 253.775 46.0822C253.655 46.0822 253.541 46.0795 253.432 46.0741C253.317 46.0741 253.197 46.0713 253.072 46.0659V43.3413C253.164 43.3468 253.246 43.3495 253.317 43.3495C253.382 43.355 253.453 43.3577 253.53 43.3577C254.092 43.3577 254.484 43.2377 254.708 42.9977C254.937 42.7632 255.052 42.4086 255.052 41.9341V28.8022ZM256.786 27.1822C256.273 27.1822 255.832 27.0104 255.461 26.6668C255.09 26.3177 254.904 25.9004 254.904 25.415C254.904 24.935 255.09 24.5232 255.461 24.1795C255.832 23.8304 256.273 23.6559 256.786 23.6559C257.31 23.6559 257.754 23.8304 258.12 24.1795C258.491 24.5232 258.676 24.935 258.676 25.415C258.676 25.9004 258.491 26.3177 258.12 26.6668C257.754 27.0104 257.31 27.1822 256.786 27.1822Z" fill="#4B5D73"/>
<path d="M244.204 34.104V41.3695H240.719V28.8022H244.041V31.0195H244.188C244.466 30.2885 244.933 29.7104 245.587 29.2849C246.242 28.854 247.035 28.6385 247.968 28.6385C248.841 28.6385 249.602 28.8295 250.251 29.2113C250.9 29.5931 251.404 30.1386 251.764 30.8476C252.124 31.5513 252.304 32.3913 252.304 33.3676V41.3695H248.819V33.9895C248.824 33.2204 248.628 32.6204 248.23 32.1895C247.832 31.7531 247.284 31.5349 246.585 31.5349C246.116 31.5349 245.702 31.6358 245.342 31.8376C244.987 32.0395 244.709 32.334 244.507 32.7213C244.311 33.1031 244.21 33.564 244.204 34.104Z" fill="#4B5D73"/>
<path d="M234.441 41.3695V28.8022H237.927V41.3695H234.441ZM236.192 27.1822C235.674 27.1822 235.23 27.0104 234.859 26.6668C234.493 26.3177 234.311 25.9004 234.311 25.415C234.311 24.935 234.493 24.5232 234.859 24.1795C235.23 23.8304 235.674 23.6559 236.192 23.6559C236.711 23.6559 237.152 23.8304 237.518 24.1795C237.889 24.5232 238.074 24.935 238.074 25.415C238.074 25.9004 237.889 26.3177 237.518 26.6668C237.152 27.0104 236.711 27.1822 236.192 27.1822Z" fill="#4B5D73"/>
<path d="M231.58 24.6132V41.3695H228.52L221.23 30.8232H221.107V41.3695H217.564V24.6132H220.674L227.906 35.1513H228.054V24.6132H231.58Z" fill="#4B5D73"/>
<path d="M204.124 41.6149C202.831 41.6149 201.718 41.3531 200.786 40.8295C199.858 40.3004 199.144 39.5531 198.642 38.5876C198.14 37.6167 197.889 36.4685 197.889 35.1431C197.889 33.8504 198.14 32.7158 198.642 31.7395C199.144 30.7631 199.85 30.0022 200.761 29.4567C201.677 28.9113 202.752 28.6385 203.985 28.6385C204.814 28.6385 205.586 28.7722 206.3 29.0395C207.02 29.3013 207.647 29.6967 208.182 30.2258C208.722 30.7549 209.142 31.4204 209.442 32.2222C209.742 33.0186 209.892 33.9513 209.892 35.0204V35.9776H199.28V33.8176H206.611C206.611 33.3158 206.502 32.8713 206.284 32.484C206.066 32.0967 205.763 31.794 205.376 31.5758C204.994 31.3522 204.549 31.2404 204.042 31.2404C203.513 31.2404 203.044 31.3631 202.635 31.6085C202.231 31.8485 201.915 32.1731 201.686 32.5822C201.456 32.9858 201.339 33.4358 201.334 33.9322V35.9858C201.334 36.6076 201.448 37.1449 201.677 37.5976C201.912 38.0504 202.242 38.3995 202.667 38.6449C203.093 38.8904 203.597 39.0131 204.181 39.0131C204.568 39.0131 204.923 38.9585 205.245 38.8495C205.566 38.7404 205.842 38.5767 206.071 38.3585C206.3 38.1404 206.475 37.8731 206.595 37.5567L209.818 37.7695C209.655 38.544 209.319 39.2204 208.812 39.7985C208.31 40.3713 207.661 40.8185 206.865 41.1404C206.074 41.4567 205.16 41.6149 204.124 41.6149Z" fill="#4B5D73"/>
<path d="M189.478 46.344C188.349 46.344 187.381 46.1886 186.574 45.8776C185.772 45.5722 185.134 45.1549 184.659 44.6258C184.185 44.0967 183.876 43.5022 183.735 42.8422L186.958 42.4085C187.056 42.6595 187.212 42.894 187.425 43.1122C187.637 43.3304 187.918 43.5049 188.267 43.6358C188.622 43.7722 189.053 43.8404 189.56 43.8404C190.318 43.8404 190.943 43.6549 191.434 43.284C191.93 42.9186 192.178 42.3049 192.178 41.4431V39.144H192.031C191.878 39.4931 191.649 39.8231 191.344 40.134C191.038 40.4449 190.646 40.6986 190.166 40.8949C189.686 41.0913 189.113 41.1895 188.447 41.1895C187.504 41.1895 186.645 40.9713 185.87 40.5349C185.101 40.0931 184.487 39.4195 184.029 38.514C183.576 37.6031 183.35 36.4522 183.35 35.0613C183.35 33.6376 183.582 32.4486 184.046 31.494C184.509 30.5395 185.126 29.8249 185.895 29.3504C186.669 28.8758 187.517 28.6385 188.439 28.6385C189.143 28.6385 189.732 28.7586 190.206 28.9986C190.681 29.2331 191.063 29.5276 191.352 29.8822C191.646 30.2313 191.873 30.5749 192.031 30.9131H192.162V28.8022H195.623V41.4922C195.623 42.5613 195.361 43.4558 194.837 44.1758C194.314 44.8958 193.588 45.4358 192.661 45.7958C191.739 46.1613 190.678 46.344 189.478 46.344ZM189.552 38.5713C190.114 38.5713 190.588 38.4322 190.976 38.154C191.368 37.8704 191.668 37.4667 191.876 36.9431C192.088 36.414 192.195 35.7813 192.195 35.0449C192.195 34.3086 192.091 33.6704 191.884 33.1304C191.676 32.5849 191.376 32.1622 190.984 31.8622C190.591 31.5622 190.114 31.4122 189.552 31.4122C188.979 31.4122 188.496 31.5676 188.104 31.8785C187.711 32.184 187.414 32.6095 187.212 33.1549C187.01 33.7004 186.909 34.3304 186.909 35.0449C186.909 35.7704 187.01 36.3976 187.212 36.9267C187.419 37.4504 187.716 37.8567 188.104 38.1458C188.496 38.4295 188.979 38.5713 189.552 38.5713Z" fill="#4B5D73"/>
<path d="M174.035 41.6067C173.233 41.6067 172.519 41.4676 171.892 41.1895C171.264 40.9058 170.768 40.4886 170.402 39.9376C170.042 39.3813 169.862 38.6885 169.862 37.8595C169.862 37.1613 169.991 36.5749 170.247 36.1004C170.503 35.6258 170.852 35.244 171.294 34.9549C171.736 34.6658 172.238 34.4476 172.8 34.3004C173.367 34.1531 173.962 34.0495 174.583 33.9895C175.314 33.9131 175.903 33.8422 176.351 33.7767C176.798 33.7058 177.122 33.6022 177.324 33.4658C177.526 33.3295 177.627 33.1276 177.627 32.8604V32.8113C177.627 32.2931 177.463 31.8922 177.136 31.6085C176.814 31.3249 176.356 31.1831 175.762 31.1831C175.134 31.1831 174.635 31.3222 174.264 31.6004C173.893 31.8731 173.648 32.2167 173.528 32.6313L170.304 32.3695C170.468 31.6058 170.79 30.9458 171.27 30.3895C171.75 29.8276 172.369 29.3967 173.127 29.0967C173.891 28.7913 174.774 28.6385 175.778 28.6385C176.476 28.6385 177.144 28.7204 177.782 28.884C178.426 29.0476 178.996 29.3013 179.492 29.6449C179.994 29.9885 180.39 30.4304 180.679 30.9704C180.968 31.5049 181.112 32.1458 181.112 32.8931V41.3695H177.807V39.6267H177.709C177.507 40.0195 177.237 40.3658 176.899 40.6658C176.561 40.9604 176.154 41.1922 175.68 41.3613C175.205 41.5249 174.657 41.6067 174.035 41.6067ZM175.033 39.2013C175.546 39.2013 175.999 39.1004 176.392 38.8986C176.784 38.6913 177.092 38.4131 177.316 38.064C177.54 37.7149 177.652 37.3195 177.652 36.8776V35.544C177.542 35.6149 177.392 35.6804 177.202 35.7404C177.016 35.7949 176.806 35.8467 176.572 35.8958C176.337 35.9395 176.102 35.9804 175.868 36.0186C175.633 36.0513 175.421 36.0813 175.23 36.1085C174.821 36.1685 174.463 36.264 174.158 36.3949C173.852 36.5258 173.615 36.7031 173.446 36.9267C173.277 37.1449 173.192 37.4176 173.192 37.7449C173.192 38.2195 173.364 38.5822 173.708 38.8331C174.057 39.0786 174.499 39.2013 175.033 39.2013Z" fill="#4B5D73"/>
<path d="M159.604 34.104V41.3695H156.119V28.8022H159.441V31.0195H159.588C159.866 30.2885 160.333 29.7104 160.987 29.2849C161.642 28.854 162.435 28.6385 163.368 28.6385C164.241 28.6385 165.002 28.8295 165.651 29.2113C166.3 29.5931 166.804 30.1386 167.164 30.8476C167.524 31.5513 167.704 32.3913 167.704 33.3676V41.3695H164.219V33.9895C164.224 33.2204 164.028 32.6204 163.63 32.1895C163.232 31.7531 162.684 31.5349 161.985 31.5349C161.516 31.5349 161.102 31.6358 160.742 31.8376C160.387 32.0395 160.109 32.334 159.907 32.7213C159.711 33.1031 159.61 33.564 159.604 34.104Z" fill="#4B5D73"/>
<path d="M146.338 41.6067C145.536 41.6067 144.821 41.4676 144.194 41.1895C143.567 40.9058 143.07 40.4886 142.705 39.9376C142.345 39.3813 142.165 38.6885 142.165 37.8595C142.165 37.1613 142.293 36.5749 142.549 36.1004C142.806 35.6258 143.155 35.244 143.597 34.9549C144.039 34.6658 144.54 34.4476 145.102 34.3004C145.669 34.1531 146.264 34.0495 146.886 33.9895C147.617 33.9131 148.206 33.8422 148.653 33.7767C149.1 33.7058 149.425 33.6022 149.627 33.4658C149.829 33.3295 149.929 33.1276 149.929 32.8604V32.8113C149.929 32.2931 149.766 31.8922 149.439 31.6085C149.117 31.3249 148.659 31.1831 148.064 31.1831C147.437 31.1831 146.938 31.3222 146.567 31.6004C146.196 31.8731 145.95 32.2167 145.83 32.6313L142.607 32.3695C142.77 31.6058 143.092 30.9458 143.572 30.3895C144.052 29.8276 144.671 29.3967 145.429 29.0967C146.193 28.7913 147.077 28.6385 148.08 28.6385C148.779 28.6385 149.447 28.7204 150.085 28.884C150.729 29.0476 151.299 29.3013 151.795 29.6449C152.297 29.9885 152.692 30.4304 152.981 30.9704C153.27 31.5049 153.415 32.1458 153.415 32.8931V41.3695H150.109V39.6267H150.011C149.809 40.0195 149.539 40.3658 149.201 40.6658C148.863 40.9604 148.457 41.1922 147.982 41.3613C147.508 41.5249 146.959 41.6067 146.338 41.6067ZM147.336 39.2013C147.849 39.2013 148.301 39.1004 148.694 38.8986C149.087 38.6913 149.395 38.4131 149.619 38.064C149.842 37.7149 149.954 37.3195 149.954 36.8776V35.544C149.845 35.6149 149.695 35.6804 149.504 35.7404C149.319 35.7949 149.109 35.8467 148.874 35.8958C148.639 35.9395 148.405 35.9804 148.17 36.0186C147.936 36.0513 147.723 36.0813 147.532 36.1085C147.123 36.1685 146.766 36.264 146.46 36.3949C146.155 36.5258 145.918 36.7031 145.749 36.9267C145.579 37.1449 145.495 37.4176 145.495 37.7449C145.495 38.2195 145.667 38.5822 146.01 38.8331C146.359 39.0786 146.801 39.2013 147.336 39.2013Z" fill="#4B5D73"/>
<path d="M121.737 24.6132H126.106L130.721 35.8713H130.917L135.531 24.6132H139.901V41.3695H136.464V30.4632H136.325L131.989 41.2877H129.649L125.312 30.4222H125.173V41.3695H121.737V24.6132Z" fill="#4B5D73"/>
<path d="M101.487 41.3695V24.6132H108.098C109.369 24.6132 110.451 24.8559 111.346 25.3413C112.241 25.8213 112.922 26.4895 113.391 27.3459C113.866 28.1968 114.103 29.1786 114.103 30.2913C114.103 31.4041 113.863 32.3859 113.383 33.2368C112.903 34.0877 112.208 34.7504 111.297 35.225C110.391 35.6995 109.295 35.9368 108.008 35.9368H103.794V33.0977H107.435C108.117 33.0977 108.679 32.9804 109.121 32.7459C109.568 32.5059 109.901 32.1759 110.119 31.7559C110.342 31.3304 110.454 30.8422 110.454 30.2913C110.454 29.735 110.342 29.2495 110.119 28.835C109.901 28.415 109.568 28.0904 109.121 27.8613C108.673 27.6268 108.106 27.5095 107.419 27.5095H105.03V41.3695H101.487Z" fill="#4B5D73"/>
<path d="M81.3862 41.3695L76.5917 24.6132H80.4617L83.2353 36.2559H83.3744L86.4344 24.6132H89.748L92.7999 36.2804H92.9471L95.7208 24.6132H99.5908L94.7962 41.3695H91.3435L88.1526 30.4141H88.0217L84.8389 41.3695H81.3862Z" fill="#4B5D73"/>
</svg>
