<svg width="279" height="64" viewBox="0 0 279 64" fill="none" xmlns="http://www.w3.org/2000/svg">
<rect width="64" height="64" rx="6.4" fill="#00009F"/>
<path d="M29.1333 43.9347H10.0561L13.0499 37.0115C13.9289 34.9789 15.9316 33.663 18.1461 33.663H40.8716L39.3257 37.2377C37.5678 41.3029 33.5623 43.9347 29.1333 43.9347Z" fill="white"/>
<path d="M44.9373 30.3871H18.1032L19.649 26.8124C21.4069 22.7472 25.4124 20.1154 29.8415 20.1154H53.0274L50.0336 27.0386C49.1546 29.0712 47.1518 30.3871 44.9373 30.3871Z" fill="white"/>
<path d="M87.1925 17.5688C87.7731 17.5107 88.2159 17.5905 88.5208 17.8085C88.8256 18.0264 88.9781 18.3678 88.9781 18.8328C88.9781 19.7336 88.4845 20.2277 87.4973 20.3148L86.2343 20.402C84.5793 20.5182 83.3452 21.0195 82.5321 21.9058C81.7191 22.792 81.2401 24.1216 81.0949 25.8942L81.0078 27.1147H85.7552C86.2197 27.1147 86.5755 27.2382 86.8223 27.4851C87.0691 27.7321 87.1925 28.0591 87.1925 28.4659C87.1925 28.9018 87.0618 29.2504 86.8004 29.512C86.5392 29.7736 86.1617 29.9042 85.6681 29.9042H80.79L79.4398 46.8603C79.4108 47.4123 79.222 47.8338 78.8737 48.1244C78.5253 48.4149 78.1042 48.5603 77.6106 48.5603C77.117 48.5603 76.7032 48.4149 76.3694 48.1244C76.0355 47.8338 75.8831 47.4123 75.9121 46.8603L77.2621 29.9042H74.3441C73.8796 29.9042 73.5238 29.7807 73.277 29.5338C73.0302 29.2868 72.9068 28.9599 72.9068 28.5531C72.9068 28.1172 73.0375 27.7685 73.2988 27.5069C73.5601 27.2455 73.952 27.1147 74.4748 27.1147H77.4799L77.5235 26.33C77.7267 23.5113 78.5543 21.3973 80.006 19.9879C81.4579 18.5785 83.5629 17.7867 86.3214 17.6123L87.1925 17.5688Z" fill="#2C2C2C"/>
<path d="M91.5026 48.5603C91.009 48.5603 90.6025 48.4149 90.2832 48.1244C89.9638 47.8338 89.8185 47.3979 89.8477 46.8166L92.0688 19.0072C92.0978 18.455 92.3011 18.041 92.6786 17.765C93.0561 17.4888 93.4916 17.3508 93.9852 17.3508C94.4788 17.3508 94.878 17.4888 95.1828 17.765C95.4878 18.041 95.6257 18.455 95.5967 19.0072L93.3754 46.8166C93.3464 47.3979 93.1505 47.8338 92.7874 48.1244C92.4245 48.4149 91.9963 48.5603 91.5026 48.5603Z" fill="#2C2C2C"/>
<path d="M116.808 26.6804C117.33 26.6804 117.744 26.833 118.049 27.1381C118.354 27.4431 118.477 27.8719 118.419 28.4239L116.938 46.9491C116.909 47.443 116.713 47.8354 116.35 48.1261C115.988 48.4165 115.559 48.5619 115.066 48.5619C114.572 48.5619 114.18 48.4238 113.89 48.1478C113.599 47.8718 113.469 47.4867 113.498 46.9927L113.672 44.9004C112.946 46.0919 111.973 47.0145 110.754 47.6683C109.534 48.3221 108.17 48.6491 106.66 48.6491C104.308 48.6491 102.522 48.0316 101.303 46.7965C100.083 45.5616 99.4734 43.7526 99.4734 41.3697C99.4734 40.8467 99.4879 40.4543 99.5169 40.1929L100.432 28.4239C100.49 27.8719 100.7 27.4431 101.063 27.1381C101.426 26.833 101.854 26.6804 102.348 26.6804C102.871 26.6804 103.284 26.833 103.589 27.1381C103.894 27.4431 104.018 27.8719 103.959 28.4239L103.045 39.975C103.016 40.1783 103.001 40.4834 103.001 40.8902C103.001 44.0868 104.526 45.6851 107.574 45.6851C109.462 45.6851 110.972 45.1038 112.104 43.9415C113.236 42.7791 113.875 41.1664 114.02 39.1032L114.891 28.4239C114.949 27.8719 115.16 27.4431 115.523 27.1381C115.886 26.833 116.314 26.6804 116.808 26.6804Z" fill="#2C2C2C"/>
<path d="M126.083 38.2728V38.4473C126.083 40.7719 126.657 42.5736 127.804 43.8521C128.951 45.1307 130.613 45.7701 132.791 45.7701C135.085 45.7701 137.103 45.1307 138.845 43.8521C139.135 43.6488 139.425 43.5471 139.716 43.5471C140.064 43.5471 140.347 43.6779 140.565 43.9394C140.783 44.2009 140.892 44.506 140.892 44.8547C140.892 45.3779 140.66 45.8573 140.195 46.2931C139.411 46.9906 138.315 47.5573 136.907 47.9932C135.498 48.429 134.068 48.647 132.617 48.647C129.539 48.647 127.093 47.7171 125.278 45.8573C123.463 43.9975 122.556 41.4984 122.556 38.36C122.556 36.0353 122.984 33.9867 123.84 32.214C124.697 30.4414 125.917 29.0611 127.499 28.0731C129.081 27.0852 130.918 26.5912 133.009 26.5912C135.854 26.5912 138.032 27.4411 139.542 29.1411C141.051 30.841 141.806 33.3038 141.806 36.5293C141.806 37.0814 141.661 37.5101 141.371 37.8152C141.08 38.1203 140.689 38.2728 140.195 38.2728H126.083ZM133.139 29.3373C131.194 29.3373 129.64 29.9111 128.479 31.0589C127.318 32.2068 126.577 33.8559 126.258 36.0063H138.627C138.714 33.8269 138.271 32.1705 137.299 31.0371C136.326 29.9038 134.939 29.3373 133.139 29.3373Z" fill="#2C2C2C"/>
<path d="M158.009 26.5912C160.39 26.5912 162.205 27.216 163.453 28.4655C164.702 29.7151 165.326 31.5311 165.326 33.914C165.326 34.4371 165.311 34.8294 165.282 35.0909L164.368 46.8162C164.31 47.3974 164.106 47.8333 163.758 48.124C163.41 48.4145 162.988 48.5598 162.495 48.5598C161.943 48.5598 161.515 48.4145 161.21 48.124C160.905 47.8333 160.782 47.3974 160.84 46.8162L161.755 35.3088C161.784 35.1055 161.798 34.8004 161.798 34.3936C161.798 31.1679 160.245 29.5552 157.138 29.5552C155.163 29.5552 153.596 30.1436 152.434 31.3205C151.273 32.4973 150.605 34.1174 150.431 36.1806L149.559 46.8162C149.53 47.3974 149.342 47.8333 148.993 48.124C148.645 48.4145 148.209 48.5598 147.687 48.5598C147.164 48.5598 146.75 48.4145 146.445 48.124C146.141 47.8333 146.003 47.3974 146.032 46.8162L147.556 28.3347C147.585 27.8117 147.781 27.4049 148.144 27.1142C148.507 26.8236 148.935 26.6783 149.429 26.6783C149.923 26.6783 150.314 26.8236 150.605 27.1142C150.895 27.4049 151.026 27.7971 150.997 28.2911L150.823 30.3833C151.548 29.1919 152.536 28.262 153.784 27.5937C155.033 26.9253 156.441 26.5912 158.009 26.5912Z" fill="#2C2C2C"/>
<path d="M175.998 40.6704C175.969 40.8739 175.955 41.1645 175.955 41.5421C175.955 42.9371 176.274 43.9977 176.913 44.7241C177.552 45.4506 178.452 45.814 179.613 45.814C179.991 45.814 180.354 45.7921 180.702 45.7486C181.05 45.7049 181.312 45.6832 181.486 45.6832C181.776 45.6832 182.016 45.7994 182.205 46.0319C182.393 46.2643 182.488 46.584 182.488 46.9908C182.488 47.601 182.234 48.0297 181.725 48.2767C181.217 48.5237 180.325 48.6472 179.047 48.6472C176.956 48.6472 175.33 48.0515 174.169 46.86C173.008 45.6686 172.427 43.9831 172.427 41.8037C172.427 41.3969 172.441 41.0772 172.47 40.8448L173.298 29.904H170.423C169.959 29.904 169.603 29.7805 169.356 29.5335C169.109 29.2865 168.986 28.9597 168.986 28.5528C168.986 28.0879 169.124 27.7319 169.4 27.4849C169.676 27.2379 170.06 27.1144 170.554 27.1144H173.516L173.908 22.1453C173.966 21.6513 174.162 21.2518 174.496 20.9467C174.83 20.6414 175.258 20.4889 175.78 20.4889C176.332 20.4889 176.76 20.6487 177.065 20.9684C177.37 21.2881 177.494 21.7094 177.436 22.2324L177.044 27.1144H181.834C182.27 27.1144 182.618 27.2379 182.88 27.4849C183.141 27.7319 183.272 28.0589 183.272 28.4657C183.272 28.9306 183.141 29.2865 182.88 29.5335C182.618 29.7805 182.241 29.904 181.747 29.904H176.826L175.998 40.6704Z" fill="#2C2C2C"/>
<path d="M276.825 30.9805H271.381V41.5163C271.381 42.4236 271.586 43.0821 271.996 43.4918C272.405 43.8723 273.005 44.0918 273.795 44.1503C274.615 44.1796 275.625 44.1649 276.825 44.1064V48.3647C273.196 48.8036 270.591 48.4964 269.01 47.4428C267.43 46.3599 266.64 44.3844 266.64 41.5163V30.9805H262.601V26.415H266.64V21.6738L271.381 20.269V26.415H276.825V30.9805Z" fill="#2C2C2C"/>
<path d="M253.755 30.1022C254.955 27.3804 257.208 26.0195 260.515 26.0195V31.1558C258.701 31.0387 257.12 31.4777 255.774 32.4727C254.428 33.4385 253.755 35.0482 253.755 37.3017V48.3643H249.014V26.4146H253.755V30.1022Z" fill="#2C2C2C"/>
<path d="M238.746 26.4143H243.487V48.364H238.746V45.2033C236.961 47.6909 234.4 48.9347 231.064 48.9347C228.049 48.9347 225.474 47.8226 223.338 45.5984C221.201 43.3449 220.133 40.6085 220.133 37.3892C220.133 34.1406 221.201 31.4042 223.338 29.18C225.474 26.9557 228.049 25.8436 231.064 25.8436C234.4 25.8436 236.961 27.0728 238.746 29.5312V26.4143ZM226.849 42.4376C228.166 43.7546 229.82 44.4131 231.81 44.4131C233.8 44.4131 235.454 43.7546 236.771 42.4376C238.088 41.0913 238.746 39.4085 238.746 37.3892C238.746 35.3698 238.088 33.7016 236.771 32.3846C235.454 31.0384 233.8 30.3653 231.81 30.3653C229.82 30.3653 228.166 31.0384 226.849 32.3846C225.532 33.7016 224.874 35.3698 224.874 37.3892C224.874 39.4085 225.532 41.0913 226.849 42.4376Z" fill="#2C2C2C"/>
<path d="M204.304 48.9355C199.68 48.9355 195.847 47.4137 192.803 44.37C189.759 41.297 188.237 37.5071 188.237 33.0001C188.237 28.493 189.759 24.7177 192.803 21.674C195.847 18.6011 199.68 17.0646 204.304 17.0646C207.085 17.0646 209.646 17.7231 211.987 19.04C214.357 20.357 216.201 22.1423 217.518 24.3958L213.128 26.9419C212.309 25.4201 211.109 24.2202 209.529 23.3422C207.977 22.4349 206.236 21.9813 204.304 21.9813C201.027 21.9813 198.363 23.0203 196.315 25.0982C194.295 27.1761 193.286 29.81 193.286 33.0001C193.286 36.1901 194.295 38.824 196.315 40.9019C198.363 42.9798 201.027 44.0188 204.304 44.0188C206.236 44.0188 207.992 43.5798 209.572 42.7018C211.153 41.7946 212.338 40.58 213.128 39.0582L217.518 41.5604C216.23 43.8139 214.401 45.6138 212.031 46.9601C209.689 48.277 207.114 48.9355 204.304 48.9355Z" fill="#2C2C2C"/>
</svg>
