<svg width="64" height="64" viewBox="0 0 64 64" fill="none" xmlns="http://www.w3.org/2000/svg">
<path d="M0 6.4C0 2.86538 2.86538 0 6.4 0H57.6C61.1346 0 64 2.86538 64 6.4V57.6C64 61.1346 61.1346 64 57.6 64H6.4C2.86538 64 0 61.1346 0 57.6V6.4Z" fill="#FF6A00"/>
<path d="M45.5786 12.0294C45.2241 11.201 44.2718 10.7157 43.3428 11.0259L41.844 11.5252C41.833 11.5287 41.8211 11.5327 41.8101 11.5362L21.0657 18.4532C20.9465 18.4931 20.8294 18.539 20.7172 18.5909C19.328 19.2846 19.4138 21.3978 20.9715 21.9175L20.9725 21.9185L29.6579 24.8142L38.1233 21.9968C38.7481 21.7888 39.3923 22.2541 39.3923 22.9125V28.8669C39.3923 29.6979 38.8603 30.4355 38.072 30.6978L34.8704 31.7631V40.9884L43.2496 38.1949C44.7265 37.7017 45.7227 36.3192 45.7227 34.7621V12.7421C45.7227 12.4863 45.6709 12.2464 45.5781 12.0294H45.5786Z" fill="white" fill-opacity="0.7"/>
<path d="M32.3992 25.7268L20.9739 21.9179L20.9729 21.9169C19.4147 21.3973 19.3295 19.2841 20.7186 18.5903C19.4352 19.1704 18.5935 20.4536 18.5935 21.8855V45.6536C18.5935 47.2117 19.5897 48.5942 21.0666 49.0864L32.4919 52.8953C33.6627 53.2863 34.8723 52.414 34.8723 51.1791V29.1597C34.8723 27.6026 33.8761 26.2191 32.3992 25.7268Z" fill="white"/>
<path opacity="0.5" d="M20.9715 18.4844C20.8811 18.5143 20.7962 18.5497 20.7168 18.5906C20.8292 18.5388 20.946 18.4929 21.0659 18.453L20.9715 18.4844Z" fill="white"/>
</svg>
